<svg width="30" height="70" viewBox="0 0 30 70" fill="none" xmlns="http://www.w3.org/2000/svg">
<path d="M0.348783 32.5003C0.348783 32.188 0.548319 31.8364 0.846922 31.6018L24.0697 13.3985C24.369 13.1639 24.8169 13.008 25.216 13.008C25.6151 13.008 26.063 13.1644 26.3623 13.3985L28.8537 15.3514C29.153 15.586 29.3518 15.8983 29.3518 16.2499C29.3518 16.5622 29.1523 16.9138 28.8537 17.1484L9.26925 32.4997L28.8537 47.8511C29.153 48.0857 29.3518 48.4368 29.3518 48.7496C29.3518 49.0624 29.1523 49.4135 28.8537 49.6481L26.3623 51.601C26.063 51.8356 25.6151 51.9915 25.216 51.9915C24.8169 51.9915 24.369 51.835 24.0697 51.601L0.846922 33.3977C0.547621 33.1631 0.348783 32.812 0.348783 32.4992V32.5003Z" fill="#666666"/>
</svg>
